<svg width="20" height="20" viewBox="0 0 20 20" fill="none" xmlns="http://www.w3.org/2000/svg">
<g clip-path="url(#clip0_77_1351)">
<path d="M20 10.0004C19.9997 8.0894 19.4518 6.21852 18.4213 4.60922C17.3908 2.99992 15.9207 1.7196 14.1851 0.919838C12.4495 0.120072 10.5211 -0.165651 8.62821 0.0964966C6.73529 0.358644 4.95712 1.15768 3.50421 2.39902C2.0513 3.64035 0.984494 5.272 0.430087 7.10079C-0.124321 8.92959 -0.143113 10.8789 0.375935 12.7181C0.894983 14.5572 1.93014 16.2091 3.35884 17.4783C4.78755 18.7474 6.54999 19.5805 8.4375 19.8791V12.891H5.89875V10.0004H8.4375V7.79726C8.4375 5.29101 9.93062 3.90663 12.2144 3.90663C12.9644 3.91704 13.7126 3.98221 14.4531 4.10163V6.56288H13.1919C12.9769 6.53434 12.7584 6.55453 12.5523 6.62195C12.3462 6.68937 12.158 6.80229 12.0015 6.95236C11.845 7.10242 11.7243 7.28578 11.6483 7.48884C11.5723 7.6919 11.543 7.90945 11.5625 8.12538V10.0004H14.3362L13.8925 12.891H11.5625V19.8791C13.9149 19.507 16.0572 18.3075 17.604 16.4965C19.1507 14.6856 20.0004 12.382 20 10.0004V10.0004Z" fill="#525252"/>
</g>
<defs>
<clipPath id="clip0_77_1351">
<rect width="20" height="20" fill="white"/>
</clipPath>
</defs>
</svg>
