<svg width="20" height="20" viewBox="0 0 20 20" fill="none" xmlns="http://www.w3.org/2000/svg">
<path fill-rule="evenodd" clip-rule="evenodd" d="M10 0.25C4.5 0.25 0 4.75 0 10.25C0 14.6875 2.875 18.4375 6.8125 19.75C7.3125 19.8125 7.5 19.5625 7.5 19.25C7.5 19 7.5 18.375 7.5 17.5625C4.6875 18.1875 4.125 16.25 4.125 16.25C3.6875 15.125 3 14.8125 3 14.8125C2.0625 14.1875 3.0625 14.1875 3.0625 14.1875C4.0625 14.25 4.625 15.1875 4.625 15.1875C5.5 16.6875 6.9375 16.25 7.5625 16C7.625 15.375 7.9375 14.9375 8.1875 14.6875C5.9375 14.4375 3.625 13.5625 3.625 9.75C3.625 8.6875 4 7.75 4.625 7.0625C4.5 6.8125 4.1875 5.8125 4.75 4.4375C4.75 4.4375 5.5625 4.1875 7.5 5.4375C8.3125 5.1875 9.125 5.125 10 5.125C10.875 5.125 11.6875 5.25 12.5 5.4375C14.4375 4.125 15.25 4.375 15.25 4.375C15.8125 5.75 15.4375 6.75 15.375 7C16 7.6875 16.375 8.5625 16.375 9.6875C16.375 13.5 14.0625 14.375 11.8125 14.625C12.1875 14.9375 12.5 15.5625 12.5 16.5C12.5 17.8125 12.5 18.9375 12.5 19.25C12.5 19.5 12.6875 19.8125 13.1875 19.75C17.125 18.4375 20 14.6875 20 10.25C20 4.75 15.5 0.25 10 0.25Z" fill="#525252"/>
</svg>
