<svg width="20" height="20" viewBox="0 0 20 20" fill="none" xmlns="http://www.w3.org/2000/svg">
<path d="M10 2.3125C12.5 2.3125 12.8 2.32187 13.7881 2.36687C14.3828 2.37389 14.9718 2.4832 15.5294 2.69C15.9364 2.84027 16.3046 3.0799 16.6069 3.39125C16.9182 3.69348 17.1579 4.06168 17.3081 4.46875C17.5149 5.02633 17.6242 5.61534 17.6313 6.21C17.6763 7.2 17.6875 7.5 17.6875 10C17.6875 12.5 17.6781 12.8 17.6331 13.7881C17.6261 14.3828 17.5168 14.9718 17.31 15.5294C17.1539 15.9335 16.9151 16.3005 16.6087 16.6069C16.3024 16.9132 15.9354 17.1521 15.5313 17.3081C14.9737 17.5149 14.3847 17.6242 13.79 17.6312C12.8019 17.6762 12.505 17.6856 10.0019 17.6856C7.49875 17.6856 7.20188 17.6762 6.21375 17.6312C5.61909 17.6242 5.03008 17.5149 4.4725 17.3081C4.06543 17.1579 3.69723 16.9182 3.395 16.6069C3.08365 16.3046 2.84402 15.9364 2.69375 15.5294C2.48695 14.9718 2.37764 14.3828 2.37063 13.7881C2.32375 12.8 2.3125 12.5031 2.3125 10C2.3125 7.49687 2.32188 7.2 2.36688 6.21187C2.37389 5.61722 2.4832 5.02821 2.69 4.47062C2.84082 4.06338 3.08109 3.69517 3.39313 3.39313C3.69536 3.08177 4.06356 2.84214 4.47063 2.69187C5.02821 2.48507 5.61722 2.37577 6.21188 2.36875C7.2 2.32375 7.5 2.3125 10 2.3125ZM10 0.625C7.45375 0.625 7.13438 0.635625 6.135 0.68125C5.35701 0.697733 4.58741 0.845651 3.85875 1.11875C3.2336 1.35403 2.66716 1.72256 2.19875 2.19875C1.72188 2.66697 1.3527 3.23343 1.11688 3.85875C0.843776 4.58741 0.695858 5.35701 0.679375 6.135C0.635625 7.13438 0.625 7.45375 0.625 10C0.625 12.5463 0.635625 12.8656 0.68125 13.865C0.697733 14.643 0.845651 15.4126 1.11875 16.1413C1.35458 16.7666 1.72376 17.333 2.20063 17.8013C2.66885 18.2781 3.23531 18.6473 3.86063 18.8831C4.58929 19.1562 5.35889 19.3041 6.13688 19.3206C7.13688 19.3663 7.45563 19.3769 10.0019 19.3769C12.5481 19.3769 12.8675 19.3663 13.8669 19.3206C14.6449 19.3041 15.4145 19.1562 16.1431 18.8831C16.7657 18.6418 17.331 18.2734 17.8031 17.8013C18.2752 17.3292 18.6437 16.7638 18.885 16.1413C19.1581 15.4126 19.306 14.643 19.3225 13.865C19.3681 12.865 19.3788 12.5463 19.3788 10C19.3788 7.45375 19.3681 7.13438 19.3225 6.135C19.306 5.35701 19.1581 4.58741 18.885 3.85875C18.6492 3.23343 18.28 2.66697 17.8031 2.19875C17.3349 1.72188 16.7684 1.3527 16.1431 1.11687C15.4145 0.843776 14.6449 0.695858 13.8669 0.679375C12.8656 0.635625 12.5463 0.625 10 0.625Z" fill="currentColor"/>
<path d="M10 5.1875C9.04818 5.1875 8.11773 5.46975 7.32632 5.99855C6.53491 6.52736 5.91808 7.27897 5.55383 8.15834C5.18959 9.03771 5.09428 10.0053 5.27997 10.9389C5.46566 11.8724 5.92401 12.7299 6.59705 13.403C7.27009 14.076 8.1276 14.5343 9.06113 14.72C9.99466 14.9057 10.9623 14.8104 11.8417 14.4462C12.721 14.0819 13.4726 13.4651 14.0014 12.6737C14.5303 11.8823 14.8125 10.9518 14.8125 10C14.8125 8.72365 14.3055 7.49957 13.403 6.59705C12.5004 5.69453 11.2764 5.1875 10 5.1875ZM10 13.125C9.38194 13.125 8.77775 12.9417 8.26384 12.5983C7.74994 12.255 7.3494 11.7669 7.11288 11.1959C6.87635 10.6249 6.81447 9.99653 6.93505 9.39034C7.05563 8.78415 7.35325 8.22733 7.79029 7.79029C8.22733 7.35325 8.78415 7.05562 9.39034 6.93505C9.99654 6.81447 10.6249 6.87635 11.1959 7.11288C11.7669 7.3494 12.255 7.74994 12.5983 8.26384C12.9417 8.77775 13.125 9.38193 13.125 10C13.125 10.8288 12.7958 11.6237 12.2097 12.2097C11.6237 12.7958 10.8288 13.125 10 13.125Z" fill="currentColor"/>
<path d="M15.0044 6.12061C15.6257 6.12061 16.1294 5.61693 16.1294 4.99561C16.1294 4.37429 15.6257 3.87061 15.0044 3.87061C14.3831 3.87061 13.8794 4.37429 13.8794 4.99561C13.8794 5.61693 14.3831 6.12061 15.0044 6.12061Z" fill="currentColor"/>
</svg>
