<svg width="20" height="20" viewBox="0 0 20 20" fill="none" xmlns="http://www.w3.org/2000/svg">
<g clip-path="url(#clip0_77_1354)">
<path d="M20 3.8125C19.25 4.125 18.5 4.375 17.625 4.4375C18.5 3.9375 19.125 3.125 19.4375 2.1875C18.625 2.6875 17.75 3 16.8125 3.1875C16.0625 2.375 15 1.875 13.875 1.875C11.625 1.875 9.75 3.6875 9.75 6C9.75 6.3125 9.8125 6.625 9.875 6.9375C6.4375 6.75 3.4375 5.125 1.375 2.625C1 3.25 0.8125 3.9375 0.8125 4.6875C0.8125 6.125 1.5625 7.375 2.625 8.125C1.9375 8.125 1.3125 7.9375 0.75 7.625V7.6875C0.75 9.6875 2.1875 11.3125 4.0625 11.6875C3.6875 11.75 3.375 11.8125 3 11.8125C2.75 11.8125 2.5 11.8125 2.25 11.75C2.75 13.375 4.3125 14.5625 6.0625 14.625C4.6875 15.75 2.875 16.375 0.9375 16.375C0.625 16.375 0.25 16.375 -0.0625 16.3125C1.8125 17.4375 4 18.125 6.3125 18.125C13.875 18.125 18 11.875 18 6.4375C18 6.25 18 6.0625 18 5.9375C18.75 5.3125 19.4375 4.625 20 3.8125Z" fill="currentColor"/>
</g>
<defs>
<clipPath id="clip0_77_1354">
<rect width="20" height="20" fill="currentColor"/>
</clipPath>
</defs>
</svg>
