<svg width="64" height="52" viewBox="0 0 64 52" fill="none" xmlns="http://www.w3.org/2000/svg">
<g clip-path="url(#clip0_77_1081)">
<path d="M31.8661 27.1014C32.9085 27.1024 33.9079 27.518 34.6449 28.2568C35.382 28.9957 35.7966 29.9975 35.7976 31.0424V37.6703C35.7747 38.7001 35.3505 39.6799 34.6159 40.4001C33.8813 41.1202 32.8946 41.5235 31.8671 41.5235C30.8396 41.5235 29.8529 41.1202 29.1183 40.4001C28.3837 39.6799 27.9595 38.7001 27.9366 37.6703V31.0424C27.9377 29.9978 28.3519 28.9963 29.0886 28.2575C29.8252 27.5187 30.8241 27.1029 31.8661 27.1014ZM31.8661 24.4146C30.1129 24.4151 28.4317 25.1136 27.1922 26.3565C25.9527 27.5994 25.2564 29.2849 25.2564 31.0424V37.6703C25.2862 39.4081 25.9958 41.0647 27.2323 42.2831C28.4688 43.5015 30.1333 44.1842 31.8671 44.1842C33.601 44.1842 35.2654 43.5015 36.5019 42.2831C37.7384 41.0647 38.448 39.4081 38.4779 37.6703V31.0424C38.4779 29.2846 37.7813 27.5988 36.5413 26.3558C35.3014 25.1128 33.6197 24.4146 31.8661 24.4146Z" fill="#171717"/>
<path d="M22.3141 30.3271C23.5482 30.3271 24.5486 29.3242 24.5486 28.0871C24.5486 26.85 23.5482 25.8471 22.3141 25.8471C21.08 25.8471 20.0796 26.85 20.0796 28.0871C20.0796 29.3242 21.08 30.3271 22.3141 30.3271Z" fill="#171717"/>
<path d="M41.9694 30.3271C43.2035 30.3271 44.2039 29.3242 44.2039 28.0871C44.2039 26.85 43.2035 25.8471 41.9694 25.8471C40.7353 25.8471 39.7349 26.85 39.7349 28.0871C39.7349 29.3242 40.7353 30.3271 41.9694 30.3271Z" fill="#171717"/>
<path d="M32.8553 52H31.2483C15.1921 52 9.74355 43.3183 8.13656 39.585C7.39771 37.8444 7.05439 35.9609 7.13148 34.0709C7.20857 32.1808 7.70415 30.3317 8.5823 28.6574C10.2147 25.4924 12.9575 20.2305 16.7385 13.0225C17.5997 11.3752 18.8046 9.93308 20.2714 8.79415C21.7381 7.65523 23.4323 6.84621 25.2387 6.42209C29.6022 5.40106 33.7976 5.29132 37.7095 6.0909C39.4995 6.4577 41.1916 7.20066 42.6743 8.27081C44.157 9.34096 45.3966 10.714 46.3114 12.2994C48.0865 15.3781 51.0932 20.7969 55.3258 29.1199C56.5218 31.435 56.9719 34.065 56.6141 36.6473C55.8829 41.7877 52.4167 45.9894 46.5909 48.7978C41.6878 51.1495 36.2804 52 32.8553 52ZM32.3978 8.25054C30.192 8.25965 27.9946 8.52268 25.8486 9.03444C24.4162 9.3712 23.073 10.0134 21.9105 10.9174C20.748 11.8213 19.7934 12.9658 19.1118 14.2729C15.3328 21.4769 12.592 26.731 10.9635 29.8901C10.2693 31.2105 9.87638 32.6691 9.81316 34.1603C9.74993 35.6516 10.018 37.1383 10.5979 38.513C11.9898 41.7583 16.7854 49.3034 31.2483 49.3034H32.8553C35.8425 49.3034 40.9274 48.5332 45.4297 46.3638C48.9037 44.6901 53.2026 41.5761 53.9612 36.2554C54.2366 34.2209 53.8752 32.1509 52.927 30.331C48.7218 22.0687 45.7464 16.6951 43.9869 13.6438C43.2629 12.3886 42.2821 11.3013 41.1088 10.4535C39.9355 9.60569 38.5964 9.01653 37.1797 8.7248C35.6057 8.40567 34.0036 8.24677 32.3978 8.25054Z" fill="#171717"/>
<path d="M8.63712 30.6054C8.21093 30.139 -1.74771 19.0801 0.269826 9.73995C1.11633 5.81849 3.90999 2.82204 8.54328 0.832889C9.40485 0.460408 10.3154 0.21422 11.247 0.101903C13.593 -0.170503 21.4833 -0.431148 24.9318 7.68613L22.4822 8.74048C19.8235 2.51239 13.9566 2.49084 11.5559 2.77108C10.8821 2.85361 10.2236 3.03315 9.60092 3.30413C5.80436 4.93073 3.5405 7.28635 2.8934 10.3044C1.1652 18.2864 10.5178 28.6888 10.6195 28.7926L8.63712 30.6054Z" fill="#171717"/>
<path d="M55.3629 30.6054L53.3845 28.7926C53.4783 28.6888 62.784 18.3491 61.1262 10.371C60.4986 7.3569 58.399 5.07967 54.708 3.43152C53.8526 3.0444 52.9375 2.80647 52.0023 2.72797C49.7013 2.54179 44.0768 2.75737 41.5295 8.74048L39.0604 7.68614C42.2919 0.097986 49.3337 -0.182258 52.2134 0.0489921C53.4534 0.152347 54.6666 0.467164 55.8008 0.979873C60.2738 2.98862 62.9501 5.96548 63.7517 9.83206C65.6871 19.1526 55.7852 30.1409 55.3629 30.6054Z" fill="#171717"/>
<path d="M9.24705 16.8656C9.06369 16.8648 8.88241 16.8266 8.71433 16.7531C8.54625 16.6796 8.3949 16.5725 8.26956 16.4384C6.84829 14.9157 5.69095 11.6919 8.33016 9.0462C11.1062 6.2614 14.7366 7.75277 16.2693 8.92862C16.5405 9.14935 16.7151 9.46744 16.7559 9.81521C16.7967 10.163 16.7005 10.513 16.4878 10.7908C16.2752 11.0686 15.9628 11.2522 15.6171 11.3027C15.2714 11.3531 14.9198 11.2663 14.6369 11.0608C14.3769 10.8649 11.9997 9.16575 10.2245 10.9452C8.57258 12.6012 9.94302 14.2885 10.2343 14.6099C10.4114 14.8012 10.529 15.04 10.5728 15.2972C10.6167 15.5543 10.5848 15.8187 10.4811 16.0581C10.3774 16.2974 10.2063 16.5012 9.98892 16.6446C9.7715 16.788 9.51709 16.8648 9.25682 16.8656H9.24705Z" fill="#171717"/>
<path d="M55.015 16.8636C54.7551 16.862 54.5013 16.7847 54.2844 16.6411C54.0675 16.4975 53.8969 16.2939 53.7934 16.0549C53.6898 15.816 53.6578 15.552 53.7011 15.2951C53.7444 15.0382 53.8613 14.7995 54.0375 14.608C54.3307 14.2846 55.6933 12.5992 54.0375 10.9452C52.2624 9.16575 49.8851 10.8649 49.6192 11.0647C49.3358 11.2671 48.9849 11.3511 48.6408 11.299C48.2968 11.2469 47.9863 11.0627 47.7752 10.7854C47.564 10.5081 47.4687 10.1594 47.5093 9.81291C47.5499 9.46643 47.7232 9.14934 47.9927 8.92862C49.5254 7.75277 53.1558 6.2614 55.9319 9.0462C58.5711 11.6919 57.4137 14.9255 55.9905 16.4384C55.8658 16.5727 55.7148 16.6798 55.5469 16.7529C55.3791 16.8261 55.198 16.8638 55.015 16.8636Z" fill="#171717"/>
</g>
<defs>
<clipPath id="clip0_77_1081">
<rect width="64" height="52" fill="white"/>
</clipPath>
</defs>
</svg>
